SplineFontDB: 3.0
FontName: BulmerStM
FullName: Sorts Mill Bulmer
FamilyName: Sorts Mill Bulmer
Weight: Regular
Copyright: Created by trashman with FontForge 2.0 (http://fontforge.sf.net)
UComments: "2010-10-5: Created." 
Version: 001.000
ItalicAngle: 0
UnderlinePosition: -100
UnderlineWidth: 50
Ascent: 680
Descent: 320
LayerCount: 3
Layer: 0 0 "Back"  1
Layer: 1 0 "Fore"  0
Layer: 2 0 "backup"  0
NeedsXUIDChange: 1
XUID: [1021 658 797806517 5336769]
OS2Version: 0
OS2_WeightWidthSlopeOnly: 0
OS2_UseTypoMetrics: 1
CreationTime: 1286303174
ModificationTime: 1288206201
OS2TypoAscent: 0
OS2TypoAOffset: 1
OS2TypoDescent: 0
OS2TypoDOffset: 1
OS2TypoLinegap: 0
OS2WinAscent: 0
OS2WinAOffset: 1
OS2WinDescent: 0
OS2WinDOffset: 1
HheadAscent: 0
HheadAOffset: 1
HheadDescent: 0
HheadDOffset: 1
OS2Vendor: 'PfEd'
MarkAttachClasses: 1
DEI: 91125
Encoding: UnicodeBmp
UnicodeInterp: none
NameList: Adobe Glyph List
DisplaySize: -48
AntiAlias: 1
FitToEm: 1
WinInfo: 77 11 5
BeginPrivate: 9
BlueValues 23 [-16 0 380 396 672 672]
OtherBlues 11 [-279 -269]
BlueScale 8 0.039625
BlueShift 1 7
BlueFuzz 1 0
StdHW 4 [29]
StemSnapH 4 [29]
StdVW 4 [81]
StemSnapV 14 [78 81 91 102]
EndPrivate
BeginChars: 65536 76

StartChar: a
Encoding: 97 97 0
Width: 409
VWidth: 0
Flags: W
HStem: -12 54<107.5 199> -12 42<298.55 382.173> 211 19<210.449 250> 371 21<139.541 220.414>
VStem: 40 85<58.5618 138.755 290.788 358.768> 250 81<58.8789 211 230 348.153>
LayerCount: 3
Fore
SplineSet
43 323 m 0xbc
 43 371 123 392 192 392 c 0
 266 392 331 355 331 295 c 2
 331 68 l 2
 331 50 332 30 356 30 c 0
 370 30 381 39 388 49 c 1
 397 31 l 1
 385 0 353 -12 335 -12 c 0x7c
 265 -12 252 54 252 54 c 1
 252 54 233 34 208 16 c 0
 187 1 162 -12 135 -12 c 0
 80 -12 40 26 40 75 c 0
 40 133 91 183 151 207 c 0
 186 221 218 226 250 230 c 1
 250 305 l 2
 250 352 219 371 178 371 c 0
 164 371 149 370 139 362 c 0
 125 351 120 336 120 314 c 0
 120 297 96 284 81 284 c 0
 58 284 43 300 43 323 c 0xbc
250 211 m 1
 250 211 125 196 125 115 c 0
 125 79 144 42 189 42 c 0xbc
 204 42 250 63 250 93 c 2
 250 211 l 1
EndSplineSet
Layer: 2
SplineSet
43 323 m 4xbc
 43 371 123 392 192 392 c 4
 266 392 331 355 331 295 c 6
 331 66 l 6
 331 50 332 30 356 30 c 4
 362 30 369 33 373 37 c 4
 378 42 380 47 385 47 c 4
 394 47 398 40 398 31 c 4
 398 5 364 -12 335 -12 c 4x7c
 265 -12 252 54 252 54 c 5
 252 54 233 34 208 16 c 4
 187 1 162 -12 135 -12 c 4
 80 -12 40 26 40 75 c 4
 40 133 91 183 151 207 c 4
 186 221 218 226 250 230 c 5
 250 305 l 6
 250 352 219 371 178 371 c 4
 164 371 149 370 139 362 c 4
 125 351 120 336 120 314 c 4
 120 297 96 284 81 284 c 4
 58 284 43 300 43 323 c 4xbc
250 211 m 5
 250 211 125 196 125 115 c 4
 125 79 144 42 189 42 c 4xbc
 204 42 250 63 250 93 c 6
 250 211 l 5
EndSplineSet
EndChar

StartChar: b
Encoding: 98 98 1
Width: 492
VWidth: 0
Flags: W
HStem: -14 31<196.091 298.61> 0 26<15 67.4867> 366 28<211.371 305.634> 627 26<15 66.9082> 652 20G<131.5 155.438>
VStem: 72 78<56.4123 317.785 583 624.077> 72 71<27.3451 65 316 452.923> 367 91<101.723 285.357>
LayerCount: 3
Fore
SplineSet
146 316 m 1x2b
 165 354 206 394 276 394 c 0
 368 394 458 307 458 192 c 0
 458 90 378 -14 261 -14 c 0
 163 -14 143 65 143 65 c 1xab
 141 -3 l 1
 90 0 63 0 15 0 c 1
 15 26 l 5
 68 27 72 22 72 89 c 2x65
 72 580 l 2
 72 625 68 624 15 627 c 1
 15 653 l 1x73
 61 655 107 662 156 672 c 1
 146 316 l 1x2b
367 190 m 0
 367 280 337 366 257 366 c 0
 227 366 202 353 183 333 c 0
 154 303 150 257 150 200 c 2
 150 169 l 2xa5
 150 78 171 17 245 17 c 0
 343 17 367 126 367 190 c 0
EndSplineSet
Layer: 2
SplineSet
146 316 m 5x76
 165 354 206 394 276 394 c 4
 368 394 458 307 458 192 c 4
 458 90 378 -14 261 -14 c 4
 163 -14 143 65 143 65 c 5
 143 -5 l 5xb6
 92 -2 63 -2 15 -2 c 5
 15 25 l 5
 56 26 72 22 72 89 c 6x7a
 72 549 l 6
 72 625 70 623 15 627 c 5
 15 656 l 5
 61 658 107 665 156 675 c 5
 146 316 l 5x76
367 190 m 4
 367 280 337 366 257 366 c 4
 227 366 202 353 183 333 c 4
 154 303 150 257 150 200 c 6
 150 169 l 6xba
 150 78 171 17 245 17 c 4
 343 17 367 126 367 190 c 4
EndSplineSet
EndChar

StartChar: c
Encoding: 99 99 2
Width: 416
VWidth: 0
Flags: W
HStem: -16 45<179.317 307.042> 373 23<195.405 290.145>
VStem: 25 91<100.462 269.562> 309 72<270.888 357.538> 359 19<84.4381 93.3158>
LayerCount: 3
Fore
SplineSet
220 -16 m 0xe8
 105 -16 25 74 25 183 c 0
 25 294 129 396 237 396 c 0
 296 396 381 373 381 309 c 0
 381 282 365 267 340 267 c 0
 326 267 309 280 309 296 c 0xf0
 309 317 311 316 311 331 c 0
 311 340 300 373 244 373 c 0
 150 373 116 277 116 191 c 0
 116 114 158 29 247 29 c 0
 303 29 333 52 359 99 c 1
 378 90 l 1
 354 17 286 -16 220 -16 c 0xe8
EndSplineSet
EndChar

StartChar: d
Encoding: 100 100 3
Width: 500
VWidth: 0
Flags: W
HStem: -14 37<177.465 283.227> 4 27<424.063 479> 366 26<188.462 284.166> 625 28<277 338.514> 652 20G<401.5 425.5>
VStem: 26 86<90.8497 283.31> 342 84<425.906 624.609> 346 71<31.0006 62 336 455.726>
LayerCount: 3
Fore
SplineSet
417 225 m 2x2d
 417 85 l 2
 417 58 420 33 439 31 c 0
 445 30 479 30 479 30 c 1
 479 4 l 1
 416 3 365 -6 346 -10 c 1
 346 62 l 1x6d
 328 28 274 -14 217 -14 c 0
 73 -14 26 85 26 190 c 0
 26 292 99 392 222 392 c 0
 301 392 342 336 342 336 c 1
 342 572 l 2
 342 618 339 625 311 625 c 0
 303 625 289 625 277 624 c 1
 277 653 l 1xb6
 323 655 377 662 426 672 c 1x2e
 425 650 417 543 417 225 c 2x2d
112 185 m 0
 112 107 153 23 236 23 c 0xa4
 280 23 318 44 331 78 c 0
 338 98 339 124 339 152 c 2
 339 262 l 2
 339 323 302 366 239 366 c 0
 151 366 112 273 112 185 c 0
EndSplineSet
Layer: 2
SplineSet
417 226 m 6xbc
 417 189 l 6
 417 140 419 107 422 72 c 4
 424 50 432 33 454 32 c 4
 460 32 479 31 479 31 c 5
 479 4 l 5x7c
 416 3 365 -6 346 -10 c 5
 346 62 l 5
 328 28 274 -14 217 -14 c 4
 73 -14 26 85 26 190 c 4
 26 292 99 392 222 392 c 4
 301 392 342 336 342 336 c 5
 342 524 l 6
 342 613 342 625 306 625 c 4
 298 625 289 625 277 624 c 5
 277 656 l 5
 323 658 377 665 426 675 c 5
 425 653 417 544 417 226 c 6xbc
112 185 m 4
 112 107 153 23 236 23 c 4xbc
 280 23 318 44 331 78 c 4
 338 98 339 124 339 152 c 6
 339 262 l 6
 339 323 302 366 239 366 c 4
 151 366 112 273 112 185 c 4
EndSplineSet
EndChar

StartChar: e
Encoding: 101 101 4
Width: 406
VWidth: 0
Flags: W
HStem: -16 51<178.476 303.509> 241 24<122 279.605> 367 29<172.425 261.522>
VStem: 25 91<104.451 237.109> 290 80<271.076 324.622> 356 21<91.13 110.667>
LayerCount: 3
Fore
SplineSet
248 35 m 0xf8
 309 35 337 61 356 114 c 1
 377 109 l 1xf4
 367 50 315 -16 221 -16 c 0
 103 -16 25 65 25 178 c 0
 25 283 105 396 212 396 c 0
 239 396 264 394 286 383 c 0
 338 356 370 308 370 240 c 1
 117 241 l 1
 116 231 116 222 116 213 c 0
 116 99 166 35 248 35 c 0xf8
216 367 m 0
 140 367 122 265 122 265 c 1
 122 265 135 265 242 268 c 0
 268 269 290 270 290 308 c 0xf8
 290 338 254 367 216 367 c 0
EndSplineSet
Layer: 2
SplineSet
248 35 m 4
 313 35 337 61 356 114 c 5
 377 109 l 5
 368 51 315 -16 221 -16 c 4
 103 -16 25 65 25 178 c 4
 25 283 105 396 212 396 c 4
 239 396 264 394 286 383 c 4
 331 360 370 311 370 255 c 4
 370 239 352 239 335 239 c 4
 321 239 117 241 117 241 c 5
 116 231 116 222 116 213 c 4
 116 99 166 35 248 35 c 4
216 367 m 4
 140 367 122 265 122 265 c 5
 122 265 135 265 242 268 c 4
 268 269 290 270 290 308 c 4
 290 338 254 367 216 367 c 4
EndSplineSet
EndChar

StartChar: f
Encoding: 102 102 5
Width: 254
VWidth: 0
Flags: W
HStem: 0 29<26 74.1049 158.998 218> 348 32<29 76 157 228> 651 21<207.218 263.041>
VStem: 76 81<29 348 380 581.726> 262 88<568.528 650.809>
LayerCount: 3
Fore
SplineSet
157 348 m 1
 157 74 l 2
 157 48 158 29 173 29 c 2
 218 29 l 1
 218 -2 l 1
 218 -2 146 0 118 0 c 0
 89 0 26 -2 26 -2 c 1
 26 29 l 1
 61 29 l 2
 75 29 76 47 76 73 c 2
 76 348 l 1
 29 348 l 1
 29 380 l 1
 76 380 l 1
 76 462 l 2
 76 525 85 586 133 630 c 0
 164 658 193 672 252 672 c 0
 297 672 350 661 350 605 c 0
 350 575 322 562 307 562 c 0
 282 562 262 576 262 606 c 0
 262 618 264 628 264 635 c 0
 264 649 256 651 241 651 c 0
 166 651 157 538 157 496 c 2
 157 380 l 1
 228 380 l 1
 228 348 l 1
 157 348 l 1
EndSplineSet
EndChar

StartChar: g
Encoding: 103 103 6
Width: 434
VWidth: 0
Flags: W
HStem: -279 31<150.156 299.457> -67 17<131.547 160> -56 82<133.113 333.653> 105 19<153.109 218.056> 367 19<159.137 217.697 321.327 378>
VStem: 29 65<-206.318 -87.3221> 32 83<170.21 318.274> 81 46<-6 85.6379> 257 78<166.244 310.154> 368 56<-188.885 -87.2794>
LayerCount: 3
Fore
SplineSet
81 32 m 0xb9c0
 81 86 136 111 136 111 c 1
 136 111 32 132 32 248 c 0xbac0
 32 328 106 386 186 386 c 0
 237 386 280 352 280 352 c 1
 280 352 318 392 360 392 c 0
 396 392 422 377 422 342 c 0
 422 326 415 308 395 308 c 0
 353 308 366 361 336 361 c 0
 315 361 294 337 294 337 c 1
 294 337 335 294 335 238 c 0
 335 169 283 105 184 105 c 0
 168 105 127 97 127 66 c 0
 127 34 168 28 200 26 c 0xb9c0
 323 20 424 27 424 -108 c 0
 424 -245 284 -279 220 -279 c 0
 123 -279 29 -230 29 -142 c 0
 29 -81 82 -53 130 -50 c 0
 146 -49 160 -54 160 -54 c 1
 162 -67 l 1
 115 -70 94 -108 94 -142 c 0xdcc0
 94 -187 121 -248 224 -248 c 0
 311 -248 368 -199 368 -127 c 0
 368 -70 292 -60 223 -56 c 0
 165 -53 81 -44 81 32 c 0xb9c0
188 367 m 0
 136 367 115 298 115 240 c 0
 115 189 128 124 184 124 c 0
 242 124 257 181 257 232 c 0
 257 288 245 367 188 367 c 0
EndSplineSet
EndChar

StartChar: h
Encoding: 104 104 7
Width: 516
VWidth: 0
Flags: W
LayerCount: 3
Fore
SplineSet
171 268 m 2
 171 74 l 2
 171 48 172 29 187 29 c 2
 228 29 l 1
 228 -2 l 1
 228 -2 160 0 132 0 c 0
 103 0 31 -2 31 -2 c 1
 31 29 l 1
 75 29 l 2
 89 29 90 47 90 73 c 2
 90 572 l 2
 90 618 87 625 59 625 c 0
 51 625 37 625 25 624 c 1
 25 653 l 1
 71 655 125 662 174 672 c 1
 174 672 171 429 171 319 c 1
 171 319 210 392 308 392 c 0
 384 392 435 351 435 289 c 2
 435 74 l 2
 435 48 436 29 451 29 c 2
 492 29 l 1
 492 -2 l 1
 492 -2 424 0 396 0 c 0
 367 0 297 -2 297 -2 c 1
 297 29 l 1
 339 29 l 2
 353 29 354 47 354 73 c 2
 354 246 l 2
 354 312 346 360 278 360 c 0
 215 360 171 296 171 268 c 2
EndSplineSet
EndChar

StartChar: i
Encoding: 105 105 8
Width: 255
VWidth: 0
Flags: W
LayerCount: 3
Fore
SplineSet
72 620 m 0x98
 72 650 96 674 126 674 c 0
 156 674 180 650 180 620 c 0
 180 590 156 566 126 566 c 0
 96 566 72 590 72 620 c 0x98
87 288 m 2xb4
 87 343 85 352 65 352 c 2
 28 352 l 1
 28 381 l 1xd4
 124 381 171 392 171 392 c 1
 168 308 168 248 168 187 c 2
 168 74 l 2
 168 48 169 29 184 29 c 2
 230 29 l 1
 230 -2 l 1
 230 -2 157 0 129 0 c 0
 100 0 25 -2 25 -2 c 1
 25 29 l 1
 72 29 l 2
 86 29 87 47 87 73 c 2
 87 288 l 2xb4
EndSplineSet
EndChar

StartChar: j
Encoding: 106 106 9
Width: 272
VWidth: 0
Flags: W
LayerCount: 3
Fore
SplineSet
191 303 m 2xba
 190 34 l 2
 190 -12 189 -52 188 -89 c 0
 185 -190 108 -248 9 -248 c 0
 -56 -248 -89 -226 -89 -187 c 0
 -89 -165 -68 -137 -40 -137 c 0
 -16 -137 -4 -160 -2 -179 c 0
 -1 -189 -2 -207 5 -214 c 0
 11 -220 16 -221 29 -221 c 0
 109 -221 109 -106 109 -29 c 2
 109 307 l 2
 109 330 107 350 86 350 c 2
 40 350 l 1
 40 381 l 1xda
 97 381 193 394 193 394 c 1
 193 394 191 316 191 303 c 2xba
90 620 m 0x9c
 90 650 114 674 144 674 c 0
 174 674 198 650 198 620 c 0
 198 590 174 566 144 566 c 0
 114 566 90 590 90 620 c 0x9c
EndSplineSet
EndChar

StartChar: k
Encoding: 107 107 10
Width: 476
VWidth: 0
Flags: HWO
HStem: -2 31<28 83.4209 167.825 213 260 284.995 407.002 460> 353 29<243 281.011 354.046 404> 625 28<20 81.5141> 652 20G<144.5 168.5>
VStem: 85 81<29 176.995 197 624.609>
LayerCount: 3
Back
SplineSet
224 220 m 5xd8
 394 49 402 32 460 29 c 5
 460 -2 l 5
 460 -2 402 0 374 0 c 4
 345 0 260 -2 260 -2 c 5
 260 29 l 5
 278 30 285 33 285 39 c 4
 285 46 273 57 261 71 c 6
 184 163 l 6
 178 170 173 177 170 177 c 4
 167 177 166 170 166 151 c 6
 166 74 l 6
 166 48 167 29 182 29 c 6
 213 29 l 5
 213 -2 l 5
 213 -2 155 0 127 0 c 4
 98 0 28 -2 28 -2 c 5
 28 29 l 5
 70 29 l 6
 84 29 85 47 85 73 c 6
 85 572 l 6
 85 618 82 625 54 625 c 4
 46 625 32 625 20 624 c 5
 20 653 l 5xe8
 66 655 120 662 169 672 c 5
 168 542 163 299 163 197 c 5
 182 215 283 308 283 331 c 4
 283 344 269 350 243 353 c 5
 243 382 l 5
 243 382 291 380 320 380 c 4
 348 380 404 382 404 382 c 5
 404 353 l 5
 346 351 298 299 224 220 c 5xd8
EndSplineSet
Fore
SplineSet
224 220 m 1xd8
 331 112 376 64 408 43 c 0
 426 31 435 30 460 29 c 1
 460 -2 l 1
 460 -2 402 0 374 0 c 0
 345 0 260 -2 260 -2 c 1
 260 29 l 1
 278 30 288 29 288 35 c 0
 288 42 273 57 261 71 c 2
 184 163 l 2
 178 170 173 177 170 177 c 0
 167 177 166 170 166 151 c 2
 166 74 l 2
 166 48 167 29 182 29 c 2
 213 29 l 1
 213 -2 l 1
 213 -2 155 0 127 0 c 0
 98 0 28 -2 28 -2 c 1
 28 29 l 1
 70 29 l 2
 84 29 85 47 85 73 c 2
 85 572 l 2
 85 618 82 625 54 625 c 0
 46 625 32 625 20 624 c 1
 20 653 l 1xe8
 66 655 120 662 169 672 c 1
 168 542 163 299 163 197 c 1
 182 215 282 306 282 335 c 0
 282 350 269 352 243 353 c 1
 243 382 l 1
 243 382 291 380 320 380 c 0
 348 380 404 382 404 382 c 1
 404 353 l 1
 394 353 l 2
 385 353 378 352 368 348 c 0
 326 329 280 280 224 220 c 1xd8
EndSplineSet
EndChar

StartChar: l
Encoding: 108 108 11
Width: 262
VWidth: 0
Flags: W
LayerCount: 3
Fore
SplineSet
173 389 m 2
 173 74 l 2
 173 48 174 29 189 29 c 2
 239 29 l 1
 239 -2 l 1
 239 -2 162 1 134 1 c 0
 105 1 27 -2 27 -2 c 1
 27 29 l 1
 77 29 l 2
 91 29 92 47 92 73 c 2
 92 572 l 2
 92 618 89 625 61 625 c 0
 53 625 39 625 27 624 c 1
 27 653 l 1
 73 655 127 662 176 672 c 1
 176 672 173 529 173 389 c 2
EndSplineSet
EndChar

StartChar: m
Encoding: 109 109 12
Width: 740
VWidth: 0
Flags: W
LayerCount: 3
Fore
SplineSet
166 302 m 1xce
 166 302 202 392 299 392 c 0
 343 392 394 368 411 321 c 1
 425 350 467 392 541 392 c 0
 621 392 657 349 657 269 c 2
 657 74 l 2
 657 48 658 29 673 29 c 2
 714 29 l 1
 714 -2 l 1
 714 -2 646 0 618 0 c 0
 589 0 519 -2 519 -2 c 1
 519 29 l 1
 561 29 l 2
 575 29 576 47 576 73 c 2
 576 246 l 2
 576 312 571 360 503 360 c 0
 473 360 434 333 424 301 c 0
 419 283 414 254 414 191 c 2
 414 74 l 2
 414 48 415 29 430 29 c 2
 466 29 l 1
 466 -2 l 1
 466 -2 403 0 375 0 c 0
 346 0 276 -2 276 -2 c 1
 276 29 l 1
 318 29 l 2
 332 29 333 47 333 73 c 2
 333 248 l 2
 333 304 326 360 275 360 c 0
 208 360 171 287 171 203 c 2
 171 74 l 2
 171 48 172 29 187 29 c 2
 223 29 l 1
 223 -2 l 1
 223 -2 160 0 132 0 c 0
 103 0 33 -2 33 -2 c 1
 33 29 l 1
 75 29 l 2
 89 29 90 47 90 73 c 2
 90 309 l 2
 90 332 88 352 67 352 c 2
 33 352 l 1
 33 381 l 1
 90 381 141 386 168 394 c 1
 166 365 164 337 164 320 c 0
 164 311 165 305 166 302 c 1xce
EndSplineSet
EndChar

StartChar: n
Encoding: 110 110 13
Width: 506
VWidth: 0
Flags: W
HStem: -2 31<30 85.4209 169.825 220 290 340.421 424.825 480> 352 29<30 81.5235> 360 32<238.351 319.261>
VStem: 87 81<29 299.941> 87 73<294 352> 342 81<29 343.89>
LayerCount: 3
Fore
SplineSet
161 294 m 1xcc
 161 294 202 392 304 392 c 0
 332 392 423 390 423 265 c 2
 423 74 l 2
 423 48 424 29 439 29 c 2
 480 29 l 1
 480 -2 l 1
 480 -2 412 0 384 0 c 0
 355 0 290 -2 290 -2 c 1
 290 29 l 1
 327 29 l 2
 341 29 342 47 342 73 c 2
 342 248 l 2
 342 304 335 360 282 360 c 0
 226 360 168 305 168 213 c 2
 168 74 l 2
 168 48 169 29 184 29 c 2
 220 29 l 1
 220 -2 l 1
 220 -2 157 0 129 0 c 0
 100 0 30 -2 30 -2 c 1
 30 29 l 1
 72 29 l 2
 86 29 87 47 87 73 c 2
 87 289 l 2xb4
 87 344 85 352 65 352 c 2
 30 352 l 1
 30 381 l 1
 117 381 166 389 166 389 c 1
 161 340 160 334 160 313 c 0
 160 306 160 299 161 294 c 1xcc
EndSplineSet
EndChar

StartChar: o
Encoding: 111 111 14
Width: 480
VWidth: 0
Flags: W
HStem: -16 27<193.281 291.963> 373 23<195.702 288.087>
VStem: 37 91<99.3062 277.68> 354 87<101.642 289.612>
LayerCount: 3
Fore
SplineSet
441 202 m 0
 441 89 365 -16 235 -16 c 0
 121 -16 37 80 37 194 c 0
 37 315 161 396 250 396 c 0
 353 396 441 310 441 202 c 0
245 373 m 0
 161 373 128 305 128 188 c 0
 128 89 160 11 243 11 c 0
 339 11 354 114 354 198 c 0
 354 278 327 373 245 373 c 0
EndSplineSet
Layer: 2
SplineSet
439 202 m 4
 439 89 363 -16 233 -16 c 4
 119 -16 34 80 34 194 c 4
 34 315 159 396 248 396 c 4
 351 396 439 310 439 202 c 4
243 373 m 4
 159 373 126 305 126 188 c 4
 126 89 158 11 241 11 c 4
 337 11 352 114 352 198 c 4
 352 278 325 373 243 373 c 4
EndSplineSet
EndChar

StartChar: p
Encoding: 112 112 15
Width: 524
VWidth: 0
Flags: W
HStem: -269 29<28 91.1049 172.998 242> -14 25<230.012 328.581> 356 29<36 90.2795> 366 26<234.042 329.61>
VStem: 93 78<-240 48 52.6667 320.731 323 356> 401 91<95.548 284.392>
LayerCount: 3
Fore
SplineSet
168 323 m 1xec
 198 364 236 392 300 392 c 0xdc
 401 392 492 311 492 188 c 0
 492 85 417 -14 294 -14 c 0
 202 -14 171 48 171 48 c 1
 171 -195 l 2
 171 -221 172 -240 187 -240 c 2
 242 -240 l 1
 242 -271 l 1
 242 -271 163 -269 135 -269 c 0
 106 -269 28 -271 28 -271 c 1
 28 -240 l 1
 78 -240 l 2
 92 -240 93 -222 93 -196 c 2
 93 293 l 2
 93 348 91 356 71 356 c 2
 36 356 l 1
 36 385 l 1
 123 385 170 394 170 394 c 1
 168 366 168 350 168 323 c 1xec
401 188 m 0
 401 285 360 366 283 366 c 0
 240 366 218 347 198 327 c 0
 172 301 171 265 171 236 c 2
 171 127 l 2
 171 31 241 11 277 11 c 0
 371 11 401 97 401 188 c 0
EndSplineSet
EndChar

StartChar: q
Encoding: 113 113 16
Width: 478
VWidth: 0
Flags: W
HStem: -269 29<271 344.105 428.998 478> -14 30<192.889 293.612> 369 23<197.556 299.415>
VStem: 36 91<84.2984 275.297> 346 81<-240 47 51.8504 337.25>
LayerCount: 3
Fore
SplineSet
427 225 m 2
 427 -195 l 2
 427 -221 428 -240 443 -240 c 2
 478 -240 l 1
 478 -271 l 1
 478 -271 416 -269 388 -269 c 0
 359 -269 271 -271 271 -271 c 1
 271 -240 l 1
 331 -240 l 2
 345 -240 346 -222 346 -196 c 2
 346 47 l 1
 323 8 276 -14 222 -14 c 0
 100 -14 36 78 36 178 c 0
 36 288 112 392 238 392 c 0
 319 392 351 343 351 343 c 1
 380 361 414 390 414 390 c 1
 431 390 l 1
 431 390 427 246 427 225 c 2
251 16 m 0
 334.023047227 16 349 87.5851793799 349 168 c 2
 349 256 l 2
 349 322 318 369 250 369 c 0
 162 369 127 299 127 185 c 0
 127 114 148 16 251 16 c 0
EndSplineSet
Layer: 2
SplineSet
427 -177 m 6
 427 -212 430 -240 448 -240 c 6
 478 -240 l 5
 478 -274 l 5
 478 -274 416 -272 388 -272 c 4
 359 -272 271 -274 271 -274 c 5
 271 -240 l 5
 326 -240 l 6
 343 -240 346 -212 346 -177 c 6
 346 47 l 5
 323 8 276 -14 222 -14 c 4
 100 -14 36 78 36 178 c 4
 36 288 112 392 238 392 c 4
 319 392 351 343 351 343 c 5
 380 361 414 390 414 390 c 5
 431 390 l 5
 431 390 427 246 427 225 c 6
 427 -177 l 6
127 185 m 4
 127 114 148 16 251 16 c 4
 274 16 291 22 305 31 c 4
 342 54 349 112 349 168 c 6
 349 256 l 6
 349 322 318 369 250 369 c 4
 162 369 127 299 127 185 c 4
EndSplineSet
EndChar

StartChar: r
Encoding: 114 114 17
Width: 340
VWidth: 0
Flags: W
HStem: 0 29<26 84.1049 168.998 240> 351 45<216.482 282.584> 351 30<25 82.0325>
VStem: 86 81<29 350.942> 86 74<303 350.942>
LayerCount: 3
Fore
SplineSet
167 204 m 2xd0
 167 74 l 2
 167 48 168 29 183 29 c 2
 240 29 l 1
 240 -2 l 1
 240 -2 156 0 128 0 c 0
 99 0 26 -2 26 -2 c 1
 26 29 l 1
 71 29 l 2
 85 29 86 47 86 73 c 2
 86 308 l 2xd0
 86 331 84 351 63 351 c 2
 25 351 l 1
 25 381 l 1
 82 383 162 395 162 395 c 1
 160 303 l 1xa8
 179 344 223 396 275 396 c 0
 305 396 335 378 335 346 c 0
 335 323 318 302 295 302 c 0
 262 302 260 351 237 351 c 0
 218 351 190 322 177 286 c 0
 170 266 167 233 167 204 c 2xd0
EndSplineSet
Layer: 2
SplineSet
167 95 m 6xb0
 167 60 170 32 188 32 c 6
 240 32 l 5
 240 -2 l 5
 240 -2 156 0 128 0 c 4
 99 0 26 -2 26 -2 c 5
 26 32 l 5
 66 32 l 6
 83 32 86 60 86 95 c 6
 86 285 l 6xb0
 86 316 85 349 58 349 c 6
 25 349 l 5
 25 381 l 5
 82 383 162 395 162 395 c 5
 160 303 l 5xc8
 179 344 223 396 275 396 c 4
 305 396 335 378 335 346 c 4
 335 323 318 302 295 302 c 4
 262 302 260 351 237 351 c 4
 218 351 190 322 177 286 c 4
 170 266 167 233 167 204 c 6
 167 95 l 6xb0
EndSplineSet
EndChar

StartChar: s
Encoding: 115 115 18
Width: 340
VWidth: 0
Flags: W
HStem: -16 30<121.183 220.492> -3 21G<37 57> 368 24<134.537 214.287>
VStem: 44 66<260.992 345.857> 50 18<98.4832 131> 243 69<35.3626 131.204> 264 17<268 295.585>
DStem2: 169 245 146 170 0.948683 -0.316228<-66.4736 99.9298>
LayerCount: 3
Fore
SplineSet
166 392 m 0xb4
 201 392 228 375 244 375 c 0
 255 375 267 382 274 387 c 1
 288 387 l 1
 283 336 282 321 281 268 c 1
 264 268 l 1xb2
 249 331 223 368 170 368 c 0
 130 368 110 337 110 304 c 0
 110 265 137 256 169 245 c 2
 214 230 l 2
 243 220 267 215 287 187 c 0
 305 163 312 122 312 107 c 0
 312 27 250 -16 172 -16 c 0xb4
 131 -16 102 11 85 11 c 0
 72 11 60 4 54 -3 c 1
 37 -3 l 1
 45 50 47 76 50 131 c 1
 68 131 l 1x6c
 70 123 75 106 77 97 c 0
 98 21 145 14 180 14 c 0
 216 14 243 41 243 85 c 0
 243 122 208 149 172 161 c 2
 146 170 l 2
 108 183 86 187 59 227 c 0
 49 242 44 258 44 283 c 0
 44 347 99 392 166 392 c 0xb4
EndSplineSet
Layer: 2
SplineSet
166 392 m 4xb4
 201 392 228 375 244 375 c 4
 250 375 255 377 260 379 c 6
 270 384 l 6
 273 386 276 387 278 387 c 4
 285 387 286 377 286 368 c 4
 286 349 279 312 279 276 c 4
 279 263 265 262 262 274 c 4xb2
 248 331 223 368 170 368 c 4
 130 368 110 337 110 304 c 4
 110 265 137 256 169 245 c 6
 214 230 l 6
 243 220 267 215 287 187 c 4
 305 163 312 122 312 107 c 4
 312 27 250 -16 172 -16 c 4xb4
 133 -16 99 11 92 11 c 4
 87 11 84 11 74 6 c 6
 65 1 l 6
 60 -2 56 -3 52 -3 c 4x74
 44 -3 38 3 38 14 c 4
 38 25 48 80 49 116 c 4
 49 124 54 132 59 132 c 4
 64 132 69 130 71 121 c 4xac
 72 113 75 104 77 97 c 4
 98 21 145 14 180 14 c 4
 216 14 243 41 243 85 c 4
 243 122 208 149 172 161 c 6
 146 170 l 6
 108 183 86 187 59 227 c 4
 49 242 44 258 44 283 c 4
 44 347 99 392 166 392 c 4xb4
EndSplineSet
EndChar

StartChar: t
Encoding: 116 116 19
Width: 264
VWidth: 0
Flags: W
HStem: -14 44<151.659 223.697> 346 37<144 238>
VStem: 59 81<38.4353 344> 236 21<49.8594 66>
LayerCount: 3
Fore
SplineSet
186 30 m 0
 205 30 226 36 236 72 c 1
 257 66 l 1
 252 28 218 -14 160 -14 c 0
 76 -14 57 42 57 71 c 0
 57 203 59 219 59 290 c 2
 59 344 l 1
 27 344 l 1
 27 365 l 1
 27 365 35 372 39 376 c 0
 76 412 99 451 122 501 c 1
 147 501 l 1
 147 467 144 417 144 383 c 1
 238 383 l 1
 238 346 l 1
 140 346 l 1
 140 131 l 2
 140 76 145 30 186 30 c 0
EndSplineSet
EndChar

StartChar: u
Encoding: 117 117 20
Width: 498
VWidth: 0
Flags: W
HStem: -14 38<181.878 271.057> -2 21G<349.294 482> 3 29<429.322 482> 352 29<21 72.2795 282 338.279> 368 20G<21 157.5 282 423.5>
VStem: 75 81<47.635 352> 341 81<36.6987 352>
LayerCount: 3
Fore
SplineSet
422 188 m 2x0e
 422 87 l 2
 422 27 443 34 482 32 c 1
 482 3 l 1x2e
 406 2 350 -2 350 -2 c 1x46
 350 -2 350 23 347 83 c 1
 336 58 286 -14 202 -14 c 0
 168 -14 139 -5 118 11 c 0
 89 32 75 58 75 108 c 2
 75 288 l 2
 75 343 73 352 53 352 c 2
 21 352 l 1
 21 381 l 1x96
 117 381 159 388 159 388 c 1x0e
 156 304 156 249 156 188 c 2
 156 162 l 2
 156 67 172 24 233 24 c 0
 296 24 341 91 341 158 c 2
 341 288 l 2
 341 343 339 352 319 352 c 2
 282 352 l 1
 282 381 l 1x96
 378 381 425 388 425 388 c 1
 422 304 422 249 422 188 c 2x0e
EndSplineSet
EndChar

StartChar: v
Encoding: 118 118 21
Width: 427
VWidth: 0
Flags: HW
HStem: -11 21G<176.985 222> 353 29<10 49.6332 152.009 183 276 325.205 372.156 417>
DStem2: 157 318 53 332 0.356788 -0.934185<-22.1122 212.522> 249 141 279 145 0.410479 0.91187<-23.1017 205.42>
LayerCount: 3
Fore
SplineSet
157 318 m 0
 173 273 208 188 224 146 c 0
 231 129 234 121 237 121 c 0
 240 121 242 127 249 141 c 0
 265 173 292 235 316 291 c 0
 320 301 326 324 326 332 c 0
 326 352 309 352 276 353 c 1
 276 382 l 1
 276 382 321 380 349 380 c 0
 378 380 417 382 417 382 c 1
 417 353 l 1
 382 352 376 351 362 320 c 2
 279 145 l 2
 267 120 231 35 213 -11 c 1
 184 -11 l 1
 137 123 l 2
 113 192 85 262 53 332 c 0
 42 355 39 351 10 353 c 1
 10 382 l 1
 10 382 66 380 94 380 c 0
 123 380 183 382 183 382 c 1
 183 353 l 1
 165 353 152 350 152 340 c 0
 152 335 155 324 157 318 c 0
EndSplineSet
Layer: 2
SplineSet
157 318 m 4
 173 273 208 188 224 146 c 4
 231 129 234 121 237 121 c 4
 240 121 242 127 249 141 c 4
 265 173 292 235 316 291 c 4
 320 301 323 311 323 319 c 4
 323 339 309 351 276 352 c 5
 276 382 l 5
 276 382 321 380 349 380 c 4
 378 380 417 382 417 382 c 5
 417 352 l 5
 384 347 367 333 353 302 c 6
 279 145 l 6
 267 120 231 35 213 -11 c 5
 184 -11 l 5
 137 123 l 6
 113 192 88 256 56 326 c 4
 45 349 39 351 10 353 c 5
 10 382 l 5
 10 382 66 380 94 380 c 4
 123 380 183 382 183 382 c 5
 183 353 l 5
 165 353 154 345 154 335 c 4
 154 330 155 324 157 318 c 4
EndSplineSet
EndChar

StartChar: w
Encoding: 119 119 22
Width: 654
VWidth: 0
Flags: HW
HStem: -11 21G<160 218.211 413.382 456.68> 353 29<10 45.5485 142.01 178 260 296.327 391.287 420 503 550.306 598.932 644>
VStem: 305 86<263.846 325.857>
DStem2: 239 141 264 136 0.358503 0.933528<-22.9183 151.399> 478 138 497 114 0.386804 0.922162<-23.0267 204.401>
LayerCount: 3
Fore
SplineSet
303 326 m 0
 290 352 290 352 260 353 c 1
 260 382 l 1
 260 382 308 380 336 380 c 0
 365 380 420 382 420 382 c 1
 420 353 l 1
 402 353 391 350 391 335 c 0
 391 330 395 315 405 282 c 0
 420 235 440 175 453 143 c 0
 460 126 463 118 466 118 c 0
 469 118 471 124 478 138 c 0
 494 170 520 235 543 291 c 0
 547 301 552 321 552 329 c 0
 552 349 536 352 503 353 c 1
 503 382 l 1
 503 382 548 380 576 380 c 0
 605 380 644 382 644 382 c 1
 644 353 l 1
 610 352 601 349 587 318 c 2
 497 114 l 1
 449 -11 l 1
 420 -11 l 1
 375 125 l 2
 362 164 347 211 331 252 c 0
 326 264 324 272 322 272 c 0
 320 272 317 264 312 252 c 2
 264 136 l 2
 246 90 211 -11 211 -11 c 1
 185 -11 l 1
 135 104 96 212 48 333 c 0
 40 352 38 351 10 353 c 1
 10 382 l 1
 10 382 61 380 89 380 c 0
 118 380 178 382 178 382 c 1
 178 353 l 1
 156 353 142 353 142 341 c 0
 142 337 144 326 146 320 c 0
 158 281 196 191 214 146 c 0
 221 129 224 121 227 121 c 0
 230 121 232 127 239 141 c 0
 247 158 276 228 293 272 c 0
 299 289 305 302 305 314 c 0
 305 317 304 323 303 326 c 0
EndSplineSet
Layer: 2
SplineSet
303 326 m 4
 290 352 290 350 260 353 c 5
 260 382 l 5
 260 382 308 380 336 380 c 4
 365 380 420 382 420 382 c 5
 420 353 l 5
 402 353 391 345 391 335 c 4
 391 330 395 315 405 282 c 4
 420 235 440 175 453 143 c 4
 460 126 463 118 466 118 c 4
 469 118 471 124 478 138 c 4
 494 170 520 235 543 291 c 4
 547 301 550 311 550 319 c 4
 550 339 536 351 503 352 c 5
 503 382 l 5
 503 382 548 380 576 380 c 4
 605 380 644 382 644 382 c 5
 644 352 l 5
 611 347 594 333 580 302 c 6
 497 114 l 5
 449 -11 l 5
 420 -11 l 5
 375 125 l 6
 362 164 347 211 331 252 c 4
 326 264 324 272 322 272 c 4
 320 272 317 264 312 252 c 6
 264 136 l 6
 246 90 211 -11 211 -11 c 5
 185 -11 l 5
 135 104 98 207 50 328 c 4
 42 347 38 351 10 353 c 5
 10 382 l 5
 10 382 61 380 89 380 c 4
 118 380 178 382 178 382 c 5
 178 353 l 5
 156 353 143 348 143 336 c 4
 143 332 144 326 146 320 c 4
 158 281 196 191 214 146 c 4
 221 129 224 121 227 121 c 4
 230 121 232 127 239 141 c 4
 247 158 276 228 293 272 c 4
 299 289 305 302 305 314 c 4
 305 317 304 323 303 326 c 4
EndSplineSet
EndChar

StartChar: x
Encoding: 120 120 23
Width: 482
VWidth: 0
Flags: W
HStem: -2 31<10 70.5725 120.017 171 252 294.989 410.037 457> 353 29<15 60.3186 165.007 193 280 318.988 371.702 426>
DStem2: 180 318 63 336 0.633394 -0.77383<-29.3963 104.625 142.041 284.686> 95 69 133 66 0.656464 0.754358<-4.5269 143.386 224.447 351.331>
LayerCount: 3
Fore
SplineSet
171 29 m 1
 171 -2 l 1
 171 -2 111 0 83 0 c 0
 54 0 10 -2 10 -2 c 1
 10 29 l 1
 57 32 63 33 95 69 c 2
 193 180 l 1
 63 336 l 2
 48 354 45 351 15 353 c 1
 15 382 l 1
 15 382 76 380 104 380 c 0
 133 380 193 382 193 382 c 1
 193 353 l 1
 175 353 165 351 165 344 c 0
 165 338 173 327 180 318 c 2
 245 236 l 1
 245 236 292 289 310 320 c 0
 313 326 319 336 319 340 c 0
 319 351 302 353 280 353 c 1
 280 382 l 1
 280 382 330 380 358 380 c 0
 387 380 426 382 426 382 c 1
 426 353 l 1
 390 351 384.313403446 354.374759454 361 328 c 2
 262 216 l 1
 397 58 l 2
 422 30 426 30 457 29 c 1
 457 -2 l 1
 457 -2 389 0 361 0 c 0
 332 0 252 -2 252 -2 c 1
 252 29 l 1
 280 30 295 33 295 44 c 0
 295 49 292 56 284 66 c 2
 210 159 l 25
 133 66 l 2
 126 58 120 46 120 41 c 0
 120 29 144 31 171 29 c 1
EndSplineSet
Layer: 2
SplineSet
171 31 m 5
 171 -2 l 5
 171 -2 111 0 83 0 c 4
 54 0 10 -2 10 -2 c 5
 10 31 l 5
 55 37 72 43 104 79 c 6
 193 180 l 5
 69 329 l 6
 54 347 45 351 15 353 c 5
 15 382 l 5
 15 382 76 380 104 380 c 4
 133 380 193 382 193 382 c 5
 193 353 l 5
 175 353 168 348 168 341 c 4
 168 335 173 327 180 318 c 6
 245 236 l 5
 245 236 292 289 310 320 c 4
 313 326 315 331 315 335 c 4
 315 346 302 351 280 351 c 5
 280 382 l 5
 280 382 330 380 358 380 c 4
 387 380 426 382 426 382 c 5
 426 351 l 5
 391 346 382 351 354 320 c 6
 262 216 l 5
 397 58 l 5
 424 29 425 35 457 30 c 5
 457 -2 l 5
 457 -2 389 0 361 0 c 4
 332 0 252 -2 252 -2 c 5
 252 30 l 5
 274 31 291 38 291 51 c 4
 291 55 289 61 284 66 c 6
 210 159 l 29
 133 66 l 6
 126 58 123 52 123 47 c 4
 123 35 144 33 171 31 c 5
EndSplineSet
EndChar

StartChar: y
Encoding: 121 121 24
Width: 440
VWidth: 0
Flags: HW
HStem: -279 106<65.9826 131.859> 353 29<10 49.6857 152.008 183 289 338.693 385.197 430>
DStem2: 157 323 54 331 0.419749 -0.90764<-17.3542 227.221> 208 -2 170 -179 0.37688 0.926262<-176.4 0 127.244 357.835>
LayerCount: 3
Fore
SplineSet
157 323 m 0
 174 281 215 194 235 149 c 0
 244 129 251 117 253 117 c 0
 256 117 260 126 268 142 c 0
 284 174 306 235 329 291 c 0
 333 301 340 323 340 331 c 0
 340 351 322 352 289 353 c 1
 289 382 l 1
 289 382 334 380 362 380 c 0
 391 380 430 382 430 382 c 1
 430 353 l 1
 395 352 385 346 371 315 c 2
 297 145 l 2
 286 120 256 38 238 -8 c 2
 170 -179 l 2
 156 -215 138 -279 92 -279 c 0
 68 -279 46 -262 46 -240 c 0
 46 -194 84 -182 110 -173 c 0
 129 -166 143 -149 152 -130 c 0
 178 -78 208 -2 208 -2 c 1
 153 123 l 2
 124 191 89 260 54 331 c 0
 43 354 39 351 10 353 c 1
 10 382 l 1
 10 382 66 380 94 380 c 0
 123 380 183 382 183 382 c 1
 183 353 l 1
 163 353 152 351 152 340 c 0
 152 336 155 327 157 323 c 0
EndSplineSet
EndChar

StartChar: z
Encoding: 122 122 25
Width: 374
VWidth: 0
Flags: W
HStem: 0 29<144.806 255.842> 353 29<111.088 227.996>
VStem: 35 26<251 290.746> 228 108<326.897 373> 318 26<93.7881 139>
DStem2: 31 30 146 53 0.529906 0.848057<60.799 371.993>
LayerCount: 3
Fore
SplineSet
335 -2 m 1xe8
 335 -2 262 0 158 0 c 0
 113 0 49 -2 38 -2 c 0
 26 -2 26 5 26 14 c 0
 26 19 28 26 31 30 c 0
 78 100 144 203 186 272 c 0
 203 300 228 337 228 346 c 0
 228 353 223 353 209 353 c 2
 202 353 l 2
 192 353 131 353 106 336 c 0
 78 317 71 283 61 251 c 1
 35 251 l 1
 36 264 40 345 43 383 c 1
 43 383 163 382 208 382 c 0
 262 382 315 384 325 384 c 0
 335 384 336 377 336 369 c 0xf0
 336 362 333 352 330 348 c 0
 293 301 213 170 146 53 c 0
 143 47 133 29 148 29 c 0
 199 29 229 31 262 46 c 0
 303 64 309 103 318 139 c 1
 344 139 l 1
 340 103 336 38 335 -2 c 1xe8
EndSplineSet
EndChar

StartChar: H
Encoding: 72 72 33
Width: 761
VWidth: 0
Flags: W
HStem: 0 32<18 100.307 217.693 300 435 517.307 634.693 717> 311 32<210 525> 603 32<33 100.307 217.693 285 450 517.307 634.693 702>
VStem: 108 102<32.8589 311 343 602.141> 525 102<32.8589 311 343 602.141>
LayerCount: 3
Fore
SplineSet
237 32 m 2
 300 32 l 1
 300 -4 l 1
 300 -4 240 0 175 0 c 2
 143 0 l 2
 78 0 18 -4 18 -4 c 1
 18 32 l 1
 81 32 l 2
 109 32 106 80 107 134 c 0
 107 154 108 174 108 192 c 2
 108 443 l 2
 108 461 107 481 107 501 c 0
 106 555 109 603 81 603 c 2
 33 603 l 1
 33 639 l 1
 33 639 78 635 143 635 c 2
 175 635 l 2
 240 635 285 639 285 639 c 1
 285 603 l 1
 237 603 l 2
 209 603 212 555 211 501 c 0
 211 481 210 461 210 443 c 2
 210 343 l 1
 525 343 l 1
 525 443 l 2
 525 461 524 481 524 501 c 0
 523 555 526 603 498 603 c 2
 450 603 l 1
 450 639 l 1
 450 639 495 635 560 635 c 2
 592 635 l 2
 657 635 702 639 702 639 c 1
 702 603 l 1
 654 603 l 2
 626 603 629 555 628 501 c 0
 628 481 627 461 627 443 c 2
 627 192 l 2
 627 174 628 154 628 134 c 0
 629 80 626 32 654 32 c 2
 717 32 l 1
 717 -4 l 1
 717 -4 657 0 592 0 c 2
 560 0 l 2
 495 0 435 -4 435 -4 c 1
 435 32 l 1
 498 32 l 2
 526 32 523 80 524 134 c 0
 524 154 525 174 525 192 c 2
 525 311 l 1
 210 311 l 1
 210 192 l 2
 210 174 211 154 211 134 c 0
 212 80 209 32 237 32 c 2
EndSplineSet
EndChar

StartChar: I
Encoding: 73 73 34
Width: 329
VWidth: 0
Flags: W
HStem: 0 32<18 100.307 217.693 300> 603 32<28 100.307 217.693 290>
VStem: 108 102<32.8589 602.141>
LayerCount: 3
Fore
SplineSet
237 32 m 2
 300 32 l 1
 300 -4 l 1
 300 -4 240 0 175 0 c 2
 143 0 l 2
 78 0 18 -4 18 -4 c 1
 18 32 l 1
 81 32 l 2
 109 32 106 80 107 134 c 0
 107 154 108 174 108 192 c 2
 108 443 l 2
 108 461 107 481 107 501 c 0
 106 555 109 603 81 603 c 2
 28 603 l 1
 28 639 l 1
 28 639 78 635 143 635 c 2
 175 635 l 2
 240 635 290 639 290 639 c 1
 290 603 l 1
 237 603 l 2
 209 603 212 555 211 501 c 0
 211 481 210 461 210 443 c 2
 210 192 l 2
 210 174 211 154 211 134 c 0
 212 80 209 32 237 32 c 2
EndSplineSet
EndChar

StartChar: J
Encoding: 74 74 35
Width: 313
VWidth: 0
Flags: W
HStem: -213 23<-11.9142 67.1308> 603 32<28 100.307 217.693 280>
VStem: -122 102<-178.263 -80.099> 108 102<-98.8594 602.141>
LayerCount: 3
Fore
SplineSet
108 150 m 2
 108 443 l 2
 108 461 107 481 107 501 c 0
 106 555 109 603 81 603 c 2
 28 603 l 1
 28 639 l 1
 28 639 78 635 143 635 c 2
 175 635 l 2
 240 635 280 639 280 639 c 1
 280 603 l 1
 237 603 l 2
 209 603 212 555 211 501 c 0
 211 481 210 461 210 443 c 2
 210 129 l 2
 210 91 210 42 207 0 c 0
 196 -168 120 -213 24 -213 c 0
 -66 -213 -122 -185 -122 -128 c 0
 -122 -97 -104 -71 -72 -71 c 0
 -35 -71 -20 -91 -20 -125 c 0
 -20 -135 -21 -139 -21 -150 c 0
 -21 -175 -12 -190 30 -190 c 0
 65 -190 81 -170 89 -143 c 0
 106 -86 108 72 108 150 c 2
EndSplineSet
EndChar

StartChar: zero
Encoding: 48 48 52
Width: 236
VWidth: 0
Flags: W
HStem: 174 112<75.9218 164.078>
VStem: 64 112<185.922 274.078>
LayerCount: 3
Fore
SplineSet
64 230 m 0
 64 261 89 286 120 286 c 0
 151 286 176 261 176 230 c 0
 176 199 151 174 120 174 c 0
 89 174 64 199 64 230 c 0
EndSplineSet
EndChar

StartChar: one
Encoding: 49 49 53
Width: 236
VWidth: 0
Flags: W
HStem: 174 112<75.9218 164.078>
VStem: 64 112<185.922 274.078>
LayerCount: 3
Fore
SplineSet
64 230 m 0
 64 261 89 286 120 286 c 0
 151 286 176 261 176 230 c 0
 176 199 151 174 120 174 c 0
 89 174 64 199 64 230 c 0
EndSplineSet
EndChar

StartChar: two
Encoding: 50 50 54
Width: 236
VWidth: 0
Flags: W
HStem: 174 112<75.9218 164.078>
VStem: 64 112<185.922 274.078>
LayerCount: 3
Fore
SplineSet
64 230 m 0
 64 261 89 286 120 286 c 0
 151 286 176 261 176 230 c 0
 176 199 151 174 120 174 c 0
 89 174 64 199 64 230 c 0
EndSplineSet
EndChar

StartChar: three
Encoding: 51 51 55
Width: 236
VWidth: 0
Flags: W
HStem: 174 112<75.9218 164.078>
VStem: 64 112<185.922 274.078>
LayerCount: 3
Fore
SplineSet
64 230 m 0
 64 261 89 286 120 286 c 0
 151 286 176 261 176 230 c 0
 176 199 151 174 120 174 c 0
 89 174 64 199 64 230 c 0
EndSplineSet
EndChar

StartChar: four
Encoding: 52 52 56
Width: 236
VWidth: 0
Flags: W
HStem: 174 112<75.9218 164.078>
VStem: 64 112<185.922 274.078>
LayerCount: 3
Fore
SplineSet
64 230 m 0
 64 261 89 286 120 286 c 0
 151 286 176 261 176 230 c 0
 176 199 151 174 120 174 c 0
 89 174 64 199 64 230 c 0
EndSplineSet
EndChar

StartChar: five
Encoding: 53 53 57
Width: 236
VWidth: 0
Flags: W
HStem: 174 112<75.9218 164.078>
VStem: 64 112<185.922 274.078>
LayerCount: 3
Fore
SplineSet
64 230 m 0
 64 261 89 286 120 286 c 0
 151 286 176 261 176 230 c 0
 176 199 151 174 120 174 c 0
 89 174 64 199 64 230 c 0
EndSplineSet
EndChar

StartChar: six
Encoding: 54 54 58
Width: 236
VWidth: 0
Flags: W
HStem: 174 112<75.9218 164.078>
VStem: 64 112<185.922 274.078>
LayerCount: 3
Fore
SplineSet
64 230 m 0
 64 261 89 286 120 286 c 0
 151 286 176 261 176 230 c 0
 176 199 151 174 120 174 c 0
 89 174 64 199 64 230 c 0
EndSplineSet
EndChar

StartChar: seven
Encoding: 55 55 59
Width: 236
VWidth: 0
Flags: W
HStem: 174 112<75.9218 164.078>
VStem: 64 112<185.922 274.078>
LayerCount: 3
Fore
SplineSet
64 230 m 0
 64 261 89 286 120 286 c 0
 151 286 176 261 176 230 c 0
 176 199 151 174 120 174 c 0
 89 174 64 199 64 230 c 0
EndSplineSet
EndChar

StartChar: eight
Encoding: 56 56 60
Width: 236
VWidth: 0
Flags: W
HStem: 174 112<75.9218 164.078>
VStem: 64 112<185.922 274.078>
LayerCount: 3
Fore
SplineSet
64 230 m 0
 64 261 89 286 120 286 c 0
 151 286 176 261 176 230 c 0
 176 199 151 174 120 174 c 0
 89 174 64 199 64 230 c 0
EndSplineSet
EndChar

StartChar: nine
Encoding: 57 57 61
Width: 236
VWidth: 0
Flags: W
HStem: 174 112<75.9218 164.078>
VStem: 64 112<185.922 274.078>
LayerCount: 3
Fore
SplineSet
64 230 m 0
 64 261 89 286 120 286 c 0
 151 286 176 261 176 230 c 0
 176 199 151 174 120 174 c 0
 89 174 64 199 64 230 c 0
EndSplineSet
EndChar

StartChar: period
Encoding: 46 46 63
Width: 276
VWidth: 0
Flags: W
HStem: -14 122<93.1072 184.893>
VStem: 78 122<1.10723 92.8928>
LayerCount: 3
Fore
SplineSet
78 47 m 0
 78 80 106 108 139 108 c 0
 172 108 200 80 200 47 c 0
 200 14 172 -14 139 -14 c 0
 106 -14 78 14 78 47 c 0
EndSplineSet
EndChar

StartChar: colon
Encoding: 58 58 64
Width: 276
VWidth: 0
Flags: W
HStem: -14 122<93.1072 184.893> 271 122<93.1072 184.893>
VStem: 78 122<1.10723 92.8928 286.107 377.893>
LayerCount: 3
Fore
SplineSet
78 332 m 0
 78 365 106 393 139 393 c 0
 172 393 200 365 200 332 c 0
 200 299 172 271 139 271 c 0
 106 271 78 299 78 332 c 0
78 47 m 0
 78 80 106 108 139 108 c 0
 172 108 200 80 200 47 c 0
 200 14 172 -14 139 -14 c 0
 106 -14 78 14 78 47 c 0
EndSplineSet
EndChar

StartChar: semicolon
Encoding: 59 59 65
Width: 276
VWidth: 0
Flags: W
HStem: 30 82<107.054 193.5> 271 122<93.1072 184.893>
VStem: 78 122<286.107 377.893> 198 28<-71.3916 29.8588>
LayerCount: 3
Fore
SplineSet
130 -6 m 4xd0
 97 -6 69 18 69 51 c 4
 69 84 97 112 130 112 c 4
 201 112 226 46 226 -17 c 4
 226 -86 186 -158 124 -182 c 5
 106 -148 l 5
 138 -126 198 -94 198 -7 c 4
 198 7 196 30 191 30 c 4
 187 30 166 -6 130 -6 c 4xd0
78 332 m 0xe0
 78 365 106 393 139 393 c 0
 172 393 200 365 200 332 c 0
 200 299 172 271 139 271 c 0
 106 271 78 299 78 332 c 0xe0
EndSplineSet
Layer: 2
SplineSet
130 -6 m 4
 97 -6 69 18 69 51 c 4
 69 84 97 112 130 112 c 4
 201 112 226 46 226 -17 c 4
 226 -86 186 -158 124 -182 c 5
 106 -148 l 5
 138 -126 198 -94 198 -7 c 4
 198 7 196 30 191 30 c 4
 187 30 166 -6 130 -6 c 4
78 332 m 4xe0
 78 365 106 393 139 393 c 4
 172 393 200 365 200 332 c 4
 200 299 172 271 139 271 c 4
 106 271 78 299 78 332 c 4xe0
EndSplineSet
EndChar

StartChar: exclam
Encoding: 33 33 66
Width: 276
VWidth: 0
Flags: W
HStem: -14 122<93.1072 184.893>
VStem: 78 122<1.10723 92.8928> 85 108<291.777 626.692>
LayerCount: 3
Fore
SplineSet
78 47 m 0xc0
 78 80 106 108 139 108 c 0
 172 108 200 80 200 47 c 0
 200 14 172 -14 139 -14 c 0
 106 -14 78 14 78 47 c 0xc0
139 651 m 0
 192 651 193 515 193 482 c 2
 193 475 l 2
 193 379 174 244 139 244 c 0
 104 244 85 379 85 475 c 2
 85 482 l 2xa0
 85 515 86 651 139 651 c 0
EndSplineSet
EndChar

StartChar: question
Encoding: 63 63 67
Width: 433
VWidth: 0
Flags: W
HStem: -14 122<95.1072 186.893> 274 29<186.364 259.492> 626 23<135.3 231.57>
VStem: 41 75<521.314 609.208> 80 122<1.10723 92.8928> 127 32<202 295.998 319.644 418> 308 90<355.624 531.32>
LayerCount: 3
Fore
SplineSet
127 202 m 1xf6
 127 418 l 1
 160 418 l 1
 160 381 l 2
 160 346 166 303 214 303 c 0
 288 303 308 382 308 458 c 0
 308 550 262 626 186 626 c 0
 141 626 116 612 116 580 c 0
 116 568 117 562 117 550 c 0
 117 528 100 516 82 516 c 0
 61 516 41 533 41 562 c 0
 41 623 124 649 192 649 c 0
 284 649 398 578 398 431 c 0
 398 345 320 274 245 274 c 0
 220 274 201 281 189 287 c 0
 184 289 174 296 167 296 c 0
 162 296 159 293 159 282 c 2
 159 202 l 1
 127 202 l 1xf6
80 47 m 0xea
 80 80 108 108 141 108 c 0
 174 108 202 80 202 47 c 0
 202 14 174 -14 141 -14 c 0
 108 -14 80 14 80 47 c 0xea
EndSplineSet
EndChar

StartChar: hyphen
Encoding: 45 45 68
Width: 276
VWidth: 0
Flags: W
HStem: 147 81<27.1638 257.836>
VStem: 27 231<147.164 227.836>
LayerCount: 3
Fore
SplineSet
258 172 m 2
 258 156 249 147 233 147 c 2
 52 147 l 2
 36 147 27 156 27 172 c 2
 27 203 l 2
 27 219 36 228 52 228 c 2
 233 228 l 2
 249 228 258 219 258 203 c 2
 258 172 l 2
EndSplineSet
EndChar

StartChar: quoteright
Encoding: 8217 8217 69
Width: 277
VWidth: 0
Flags: W
HStem: 549 82<98.0536 184.5>
VStem: 189 28<447.608 548.859>
LayerCount: 3
Fore
SplineSet
121 513 m 0
 88 513 60 537 60 570 c 0
 60 603 88 631 121 631 c 0
 192 631 217 565 217 502 c 0
 217 433 177 361 115 337 c 1
 97 371 l 1
 129 393 189 425 189 512 c 0
 189 526 187 549 182 549 c 0
 178 549 157 513 121 513 c 0
EndSplineSet
Layer: 2
SplineSet
121 506 m 4
 88 506 60 530 60 563 c 4
 60 596 88 624 121 624 c 4
 192 624 217 558 217 495 c 4
 217 426 177 354 115 330 c 5
 97 364 l 5
 129 386 189 418 189 505 c 4
 189 519 187 542 182 542 c 4
 178 542 157 506 121 506 c 4
EndSplineSet
EndChar

StartChar: comma
Encoding: 44 44 70
Width: 276
VWidth: 0
Flags: W
HStem: 30 82<107.054 193.5>
VStem: 198 28<-71.3916 29.8588>
LayerCount: 3
Back
SplineSet
130 -6 m 4
 97 -6 69 18 69 51 c 4
 69 84 97 112 130 112 c 4
 201 112 226 46 226 -17 c 4
 226 -89 173 -175 132 -175 c 4
 116 -175 109 -168 109 -159 c 4
 109 -148 113 -144 121 -138 c 4
 146 -118 198 -90 198 -7 c 4
 198 7 196 30 191 30 c 4
 187 30 166 -6 130 -6 c 4
EndSplineSet
Fore
SplineSet
130 -6 m 0
 97 -6 69 18 69 51 c 0
 69 84 97 112 130 112 c 0
 201 112 226 46 226 -17 c 0
 226 -86 186 -158 124 -182 c 1
 106 -148 l 1
 138 -126 198 -94 198 -7 c 0
 198 7 196 30 191 30 c 0
 187 30 166 -6 130 -6 c 0
EndSplineSet
Layer: 2
SplineSet
130 -6 m 4
 97 -6 69 18 69 51 c 4
 69 84 97 112 130 112 c 4
 201 112 226 46 226 -17 c 4
 226 -86 186 -158 124 -182 c 5
 106 -148 l 5
 138 -126 198 -94 198 -7 c 4
 198 7 196 30 191 30 c 4
 187 30 166 -6 130 -6 c 4
130 -6 m 0
 97 -6 69 18 69 51 c 0
 69 84 97 112 130 112 c 0
 201 112 226 46 226 -17 c 0
 226 -89 173 -175 132 -175 c 0
 116 -175 109 -168 109 -159 c 0
 109 -148 113 -144 121 -138 c 0
 146 -118 198 -90 198 -7 c 0
 198 7 196 30 191 30 c 0
 187 30 166 -6 130 -6 c 0
EndSplineSet
EndChar

StartChar: quotedblleft
Encoding: 8220 8220 71
Width: 497
VWidth: 0
Flags: W
HStem: 337 82<92.5 178.946 312.5 398.946>
VStem: 60 28<419.141 520.392> 280 28<419.141 520.392>
LayerCount: 3
Fore
SplineSet
156 455 m 0
 189 455 217 431 217 398 c 0
 217 365 189 337 156 337 c 0
 85 337 60 403 60 466 c 0
 60 535 100 607 162 631 c 1
 180 597 l 1
 148 575 88 543 88 456 c 0
 88 442 90 419 95 419 c 0
 99 419 120 455 156 455 c 0
376 455 m 0
 409 455 437 431 437 398 c 0
 437 365 409 337 376 337 c 0
 305 337 280 403 280 466 c 0
 280 535 320 607 382 631 c 1
 400 597 l 1
 368 575 308 543 308 456 c 0
 308 442 310 419 315 419 c 0
 319 419 340 455 376 455 c 0
EndSplineSet
EndChar

StartChar: quotedblright
Encoding: 8221 8221 72
Width: 497
VWidth: 0
Flags: W
HStem: 549 82<98.0536 184.5 318.054 404.5>
VStem: 189 28<447.608 548.859> 409 28<447.608 548.859>
LayerCount: 3
Fore
SplineSet
341 513 m 0
 308 513 280 537 280 570 c 0
 280 603 308 631 341 631 c 0
 412 631 437 565 437 502 c 0
 437 433 397 361 335 337 c 1
 317 371 l 1
 349 393 409 425 409 512 c 0
 409 526 407 549 402 549 c 0
 398 549 377 513 341 513 c 0
121 513 m 0
 88 513 60 537 60 570 c 0
 60 603 88 631 121 631 c 0
 192 631 217 565 217 502 c 0
 217 433 177 361 115 337 c 1
 97 371 l 1
 129 393 189 425 189 512 c 0
 189 526 187 549 182 549 c 0
 178 549 157 513 121 513 c 0
EndSplineSet
EndChar

StartChar: quoteleft
Encoding: 8216 8216 73
Width: 277
VWidth: 0
Flags: W
HStem: 337 82<92.5 178.946>
VStem: 60 28<419.141 520.392>
LayerCount: 3
Fore
SplineSet
156 455 m 0
 189 455 217 431 217 398 c 0
 217 365 189 337 156 337 c 0
 85 337 60 403 60 466 c 0
 60 535 100 607 162 631 c 1
 180 597 l 1
 148 575 88 543 88 456 c 0
 88 442 90 419 95 419 c 0
 99 419 120 455 156 455 c 0
EndSplineSet
Layer: 2
SplineSet
156 455 m 4
 189 455 217 431 217 398 c 4
 217 365 189 337 156 337 c 4
 85 337 60 403 60 466 c 4
 60 535 100 607 162 631 c 5
 180 597 l 5
 148 575 88 543 88 456 c 4
 88 442 90 419 95 419 c 4
 99 419 120 455 156 455 c 4
EndSplineSet
EndChar

StartChar: endash
Encoding: 8211 8211 74
Width: 453
VWidth: 0
Flags: W
HStem: 160 53<25 428>
LayerCount: 3
Fore
SplineSet
428 176 m 2
 428 166 428 160 412 160 c 2
 41 160 l 2
 25 160 25 166 25 176 c 2
 25 197 l 2
 25 207 25 213 41 213 c 2
 412 213 l 2
 428 213 428 207 428 197 c 2
 428 176 l 2
EndSplineSet
EndChar

StartChar: emdash
Encoding: 8212 8212 75
Width: 779
VWidth: 0
Flags: W
HStem: 160 53<25 754>
LayerCount: 3
Fore
SplineSet
754 176 m 2
 754 166 754 160 738 160 c 2
 41 160 l 2
 25 160 25 166 25 176 c 2
 25 197 l 2
 25 207 25 213 41 213 c 2
 738 213 l 2
 754 213 754 207 754 197 c 2
 754 176 l 2
EndSplineSet
EndChar
